
<svg width="127px" height="56px" viewBox="0 0 127 56" version="1.1" xmlns="http://www.w3.org/2000/svg" xmlns:xlink="http://www.w3.org/1999/xlink">
    <!-- Generator: Sketch 43.1 (39012) - http://www.bohemiancoding.com/sketch -->
    <desc>Created with Sketch.</desc>
    <defs></defs>
    <g id="Welcome" stroke="none" stroke-width="1" fill="none" fill-rule="evenodd">
        <g id="Mobile-Portrait" transform="translate(-96.000000, -36.000000)">
            <g id="Group-3" transform="translate(96.000000, 36.000000)">
                <rect id="Rectangle" fill="#3A506B" x="0" y="0" width="56" height="56"></rect>
                <path d="M11.096,24.264 C10.0559948,24.264 9.10800428,24.1080016 8.252,23.796 C7.39599572,23.4839984 6.66000308,23.0200031 6.044,22.404 C5.42799692,21.7879969 4.95200168,21.0240046 4.616,20.112 C4.27999832,19.1999954 4.112,18.1520059 4.112,16.968 L4.112,7.2 L6.008,7.2 L6.008,16.848 C6.008,18.6720091 6.45999548,20.0719951 7.364,21.048 C8.26800452,22.0240049 9.52799192,22.512 11.144,22.512 C12.6960078,22.512 13.9279954,22.0480046 14.84,21.12 C15.7520046,20.1919954 16.208,18.8080092 16.208,16.968 L16.208,7.2 L18.104,7.2 L18.104,16.824 C18.104,18.0560062 17.9360017,19.1359954 17.6,20.064 C17.2639983,20.9920046 16.7880031,21.7679969 16.172,22.392 C15.5559969,23.0160031 14.8200043,23.4839984 13.964,23.796 C13.1079957,24.1080016 12.1520053,24.264 11.096,24.264 Z M21.296,7.2 L23.36,7.2 L28.16,21.192 L32.768,7.152 L34.328,7.152 L38.936,21.192 L43.736,7.2 L45.728,7.2 L39.728,24.12 L38.12,24.12 L33.512,10.488 L28.88,24.12 L27.296,24.12 L21.296,7.2 Z M11.056,46.288 C9.83999392,46.288 8.72000512,46.0640022 7.696,45.616 C6.67199488,45.1679978 5.78400376,44.5560039 5.032,43.78 C4.27999624,43.0039961 3.69200212,42.0880053 3.268,41.032 C2.84399788,39.9759947 2.632,38.848006 2.632,37.648 L2.632,37.6 C2.632,36.4159941 2.84399788,35.2960053 3.268,34.24 C3.69200212,33.1839947 4.27999624,32.260004 5.032,31.468 C5.78400376,30.675996 6.6799948,30.0520023 7.72,29.596 C8.7600052,29.1399977 9.89599384,28.912 11.128,28.912 C11.8960038,28.912 12.5879969,28.9759994 13.204,29.104 C13.8200031,29.2320006 14.3919974,29.4119988 14.92,29.644 C15.4480026,29.8760012 15.9359978,30.1559984 16.384,30.484 C16.8320022,30.8120016 17.2639979,31.175998 17.68,31.576 L16.384,32.968 C15.6639964,32.2959966 14.8920041,31.7440022 14.068,31.312 C13.2439959,30.8799978 12.2560058,30.664 11.104,30.664 C10.1759954,30.664 9.31600396,30.8399982 8.524,31.192 C7.73199604,31.5440018 7.04400292,32.0319969 6.46,32.656 C5.87599708,33.2800031 5.42000164,34.0119958 5.092,34.852 C4.76399836,35.6920042 4.6,36.5919952 4.6,37.552 L4.6,37.6 C4.6,38.5760049 4.76399836,39.4839958 5.092,40.324 C5.42000164,41.1640042 5.87599708,41.8959969 6.46,42.52 C7.04400292,43.1440031 7.73199604,43.6359982 8.524,43.996 C9.31600396,44.3560018 10.1759954,44.536 11.104,44.536 C12.2560058,44.536 13.2479958,44.3240021 14.08,43.9 C14.9120042,43.4759979 15.727996,42.8800038 16.528,42.112 L17.776,43.336 C17.3439978,43.7840022 16.8920024,44.1879982 16.42,44.548 C15.9479976,44.9080018 15.4400027,45.2159987 14.896,45.472 C14.3519973,45.7280013 13.7680031,45.9279993 13.144,46.072 C12.5199969,46.2160007 11.8240038,46.288 11.056,46.288 Z M31.984,39.856 L28.168,31.288 L24.328,39.856 L31.984,39.856 Z M27.304,29.08 L29.08,29.08 L36.736,46 L34.696,46 L32.728,41.56 L23.584,41.56 L21.592,46 L19.648,46 L27.304,29.08 Z M47.104,37.768 C47.7280031,37.768 48.3039974,37.6880008 48.832,37.528 C49.3600026,37.3679992 49.8159981,37.1400015 50.2,36.844 C50.5840019,36.5479985 50.8839989,36.1880021 51.1,35.764 C51.3160011,35.3399979 51.424,34.8560027 51.424,34.312 L51.424,34.264 C51.424,33.2239948 51.0480038,32.4120029 50.296,31.828 C49.5439962,31.2439971 48.4880068,30.952 47.128,30.952 L41.944,30.952 L41.944,37.768 L47.104,37.768 Z M40.048,29.2 L47.272,29.2 C48.3120052,29.2 49.235996,29.3479985 50.044,29.644 C50.852004,29.9400015 51.5199974,30.3519974 52.048,30.88 C52.4640021,31.2960021 52.7839989,31.7839972 53.008,32.344 C53.2320011,32.9040028 53.344,33.5199966 53.344,34.192 L53.344,34.24 C53.344,34.9440035 53.2320011,35.5719972 53.008,36.124 C52.7839989,36.6760028 52.468002,37.155998 52.06,37.564 C51.651998,37.972002 51.1680028,38.3079987 50.608,38.572 C50.0479972,38.8360013 49.4400033,39.0239994 48.784,39.136 L53.944,46 L51.616,46 L46.744,39.472 L41.944,39.472 L41.944,46 L40.048,46 L40.048,29.2 Z" id="UW-CAR" fill="#FFFFFF"></path>
                <path d="M64.048,38.344 C64.7360034,38.344 65.3639972,38.2560009 65.932,38.08 C66.5000028,37.9039991 66.987998,37.6520016 67.396,37.324 C67.804002,36.9959984 68.1159989,36.6080022 68.332,36.16 C68.5480011,35.7119978 68.656,35.2080028 68.656,34.648 L68.656,34.6 C68.656,33.399994 68.2440041,32.4920031 67.42,31.876 C66.5959959,31.2599969 65.5040068,30.952 64.144,30.952 L59.896,30.952 L59.896,38.344 L64.048,38.344 Z M58,29.2 L64.288,29.2 C65.2320047,29.2 66.0919961,29.3239988 66.868,29.572 C67.6440039,29.8200012 68.3079972,30.1719977 68.86,30.628 C69.4120028,31.0840023 69.8359985,31.6399967 70.132,32.296 C70.4280015,32.9520033 70.576,33.6959958 70.576,34.528 L70.576,34.576 C70.576,35.4880046 70.4000018,36.2839966 70.048,36.964 C69.6959982,37.6440034 69.220003,38.2159977 68.62,38.68 C68.019997,39.1440023 67.320004,39.4919988 66.52,39.724 C65.719996,39.9560012 64.8720045,40.072 63.976,40.072 L59.896,40.072 L59.896,46 L58,46 L58,29.2 Z M81.88,44.536 C82.8400048,44.536 83.723996,44.3560018 84.532,43.996 C85.340004,43.6359982 86.0319971,43.1440031 86.608,42.52 C87.1840029,41.8959969 87.6359984,41.1680042 87.964,40.336 C88.2920016,39.5039958 88.456,38.6080048 88.456,37.648 L88.456,37.6 C88.456,36.6399952 88.2920016,35.7400042 87.964,34.9 C87.6359984,34.0599958 87.176003,33.3280031 86.584,32.704 C85.991997,32.0799969 85.292004,31.5840018 84.484,31.216 C83.675996,30.8479982 82.7920048,30.664 81.832,30.664 C80.8719952,30.664 79.988004,30.8439982 79.18,31.204 C78.371996,31.5640018 77.6800029,32.0559969 77.104,32.68 C76.5279971,33.3040031 76.0760016,34.0319958 75.748,34.864 C75.4199984,35.6960042 75.256,36.5919952 75.256,37.552 L75.256,37.6 C75.256,38.5600048 75.4199984,39.4599958 75.748,40.3 C76.0760016,41.1400042 76.535997,41.8719969 77.128,42.496 C77.720003,43.1200031 78.419996,43.6159982 79.228,43.984 C80.036004,44.3520018 80.9199952,44.536 81.88,44.536 Z M81.832,46.288 C80.5519936,46.288 79.3880052,46.0560023 78.34,45.592 C77.2919948,45.1279977 76.3920038,44.500004 75.64,43.708 C74.8879962,42.915996 74.308002,41.9960052 73.9,40.948 C73.491998,39.8999948 73.288,38.8000058 73.288,37.648 L73.288,37.6 C73.288,36.4479942 73.4959979,35.3440053 73.912,34.288 C74.3280021,33.2319947 74.9119962,32.308004 75.664,31.516 C76.4160038,30.723996 77.3199947,30.0920024 78.376,29.62 C79.4320053,29.1479976 80.5999936,28.912 81.88,28.912 C83.1600064,28.912 84.3239948,29.1439977 85.372,29.608 C86.4200052,30.0720023 87.3199962,30.699996 88.072,31.492 C88.8240038,32.284004 89.403998,33.2039948 89.812,34.252 C90.220002,35.3000052 90.424,36.3999942 90.424,37.552 C90.4400001,37.5680001 90.4400001,37.5839999 90.424,37.6 C90.424,38.7520058 90.2160021,39.8559947 89.8,40.912 C89.3839979,41.9680053 88.8000038,42.891996 88.048,43.684 C87.2959962,44.476004 86.3920053,45.1079976 85.336,45.58 C84.2799947,46.0520024 83.1120064,46.288 81.832,46.288 Z M102.28,44.536 C103.240005,44.536 104.123996,44.3560018 104.932,43.996 C105.740004,43.6359982 106.431997,43.1440031 107.008,42.52 C107.584003,41.8959969 108.035998,41.1680042 108.364,40.336 C108.692002,39.5039958 108.856,38.6080048 108.856,37.648 L108.856,37.6 C108.856,36.6399952 108.692002,35.7400042 108.364,34.9 C108.035998,34.0599958 107.576003,33.3280031 106.984,32.704 C106.391997,32.0799969 105.692004,31.5840018 104.884,31.216 C104.075996,30.8479982 103.192005,30.664 102.232,30.664 C101.271995,30.664 100.388004,30.8439982 99.58,31.204 C98.771996,31.5640018 98.0800029,32.0559969 97.504,32.68 C96.9279971,33.3040031 96.4760016,34.0319958 96.148,34.864 C95.8199984,35.6960042 95.656,36.5919952 95.656,37.552 L95.656,37.6 C95.656,38.5600048 95.8199984,39.4599958 96.148,40.3 C96.4760016,41.1400042 96.935997,41.8719969 97.528,42.496 C98.120003,43.1200031 98.819996,43.6159982 99.628,43.984 C100.436004,44.3520018 101.319995,44.536 102.28,44.536 Z M102.232,46.288 C100.951994,46.288 99.7880052,46.0560023 98.74,45.592 C97.6919948,45.1279977 96.7920038,44.500004 96.04,43.708 C95.2879962,42.915996 94.708002,41.9960052 94.3,40.948 C93.891998,39.8999948 93.688,38.8000058 93.688,37.648 L93.688,37.6 C93.688,36.4479942 93.8959979,35.3440053 94.312,34.288 C94.7280021,33.2319947 95.3119962,32.308004 96.064,31.516 C96.8160038,30.723996 97.7199947,30.0920024 98.776,29.62 C99.8320053,29.1479976 100.999994,28.912 102.28,28.912 C103.560006,28.912 104.723995,29.1439977 105.772,29.608 C106.820005,30.0720023 107.719996,30.699996 108.472,31.492 C109.224004,32.284004 109.803998,33.2039948 110.212,34.252 C110.620002,35.3000052 110.824,36.3999942 110.824,37.552 C110.84,37.5680001 110.84,37.5839999 110.824,37.6 C110.824,38.7520058 110.616002,39.8559947 110.2,40.912 C109.783998,41.9680053 109.200004,42.891996 108.448,43.684 C107.695996,44.476004 106.792005,45.1079976 105.736,45.58 C104.679995,46.0520024 103.512006,46.288 102.232,46.288 Z M114.832,29.2 L116.728,29.2 L116.728,44.248 L126.184,44.248 L126.184,46 L114.832,46 L114.832,29.2 Z" id="POOL" fill="#3A506B"></path>
            </g>
        </g>
    </g>
</svg>