<?xml version="1.0" standalone="no"?>
<!DOCTYPE svg PUBLIC "-//W3C//DTD SVG 20010904//EN"
 "http://www.w3.org/TR/2001/REC-SVG-20010904/DTD/svg10.dtd">
<svg version="1.0" xmlns="http://www.w3.org/2000/svg"
 width="16.000000pt" height="16.000000pt" viewBox="0 0 16.000000 16.000000"
 preserveAspectRatio="xMidYMid meet">
<metadata>
Created by potrace 1.11, written by Peter Selinger 2001-2013
</metadata>
<g transform="translate(0.000000,16.000000) scale(0.001563,-0.001563)"
fill="#000000" stroke="none">
<path d="M0 5120 l0 -5120 5120 0 5120 0 0 5120 0 5120 -5120 0 -5120 0 0
-5120z m6699 2548 c228 -698 418 -1268 421 -1268 4 0 167 469 716 2073 l157
457 189 0 c177 0 190 -1 183 -17 -7 -18 -1054 -2970 -1082 -3051 l-15 -43
-151 3 -152 3 -415 1227 c-228 675 -418 1229 -421 1232 -3 3 -194 -550 -425
-1229 l-419 -1235 -149 2 -150 3 -543 1530 c-299 842 -546 1540 -549 1553 l-6
22 194 0 194 0 434 -1265 c239 -696 436 -1265 439 -1265 3 0 190 562 415 1248
225 686 412 1257 417 1270 9 22 11 22 155 20 l147 -3 416 -1267z m-5596 285
c3 -869 6 -987 21 -1063 64 -321 200 -525 437 -653 235 -128 609 -142 879 -33
103 41 172 88 260 176 144 144 221 324 250 585 6 53 10 475 10 1028 l0 937
180 0 180 0 0 -882 c0 -912 -6 -1095 -39 -1265 -86 -443 -343 -762 -725 -898
-180 -65 -274 -79 -521 -79 -174 -1 -239 3 -310 17 -518 105 -835 424 -947
954 -23 108 -23 110 -26 1131 l-3 1022 175 0 175 0 4 -977z m1300 -3022 c206
-42 384 -112 539 -213 80 -53 249 -187 277 -221 15 -19 15 -19 -156 -200 l-73
-77 -90 75 c-302 251 -539 345 -871 345 -149 0 -263 -18 -385 -61 -183 -63
-321 -155 -461 -304 -183 -194 -296 -439 -334 -722 -15 -112 -7 -363 15 -463
60 -274 184 -502 372 -679 250 -235 565 -343 907 -312 310 29 501 122 832 404
l40 34 119 -114 120 -113 -40 -41 c-63 -65 -213 -189 -294 -242 -351 -229
-837 -311 -1272 -212 -504 114 -915 492 -1082 995 -67 203 -80 288 -80 545 -1
201 2 244 22 343 67 331 208 600 431 822 248 247 516 379 886 434 17 2 129 3
250 1 178 -2 241 -7 328 -24z m2957 -63 c442 -109 690 -340 777 -723 22 -99
22 -344 -1 -450 -70 -320 -308 -575 -647 -693 -217 -76 -368 -92 -896 -92
l-383 0 0 -545 0 -545 -180 0 -180 0 0 1541 0 1540 703 -4 702 -3 105 -26z"/>
<path d="M4210 3906 l0 -676 384 0 c531 0 648 15 831 105 186 91 312 241 356
425 18 76 16 249 -5 334 -54 223 -226 381 -494 454 l-97 26 -487 4 -488 3 0
-675z"/>
</g>
</svg>
